<svg xmlns="http://www.w3.org/2000/svg" viewBox="0 0 72 24">
    <style>
        .stroke {
            stroke: #0f172a
        }
        @media (prefers-color-scheme: dark) {
            .stroke.adaptive {
                stroke: #f1f5f9
            }
        }
    </style>
    <svg xmlns="http://www.w3.org/2000/svg" width="24" height="24" viewBox="0 0 24 24" fill="none" stroke-width="2" stroke-linecap="round" stroke-linejoin="round" class="lucide lucide-calendar-clock stroke adaptive" x="0">
        <path d="M21 7.5V6a2 2 0 0 0-2-2H5a2 2 0 0 0-2 2v14a2 2 0 0 0 2 2h3.5" />
        <path d="M16 2v4" />
        <path d="M8 2v4" />
        <path d="M3 10h5" />
        <path d="M17.5 17.5 16 16.3V14" />
        <circle cx="16" cy="16" r="6" />
    </svg>
    <svg xmlns="http://www.w3.org/2000/svg" width="24" height="24" viewBox="0 0 24 24" fill="none" stroke-width="2" stroke-linecap="round" stroke-linejoin="round" class="lucide lucide-move-right stroke adaptive" x="24">
        <path d="M18 8L22 12L18 16" />
        <path d="M2 12H22" />
    </svg>
    <svg xmlns="http://www.w3.org/2000/svg" width="24" height="24" viewBox="0 0 24 24" fill="none" stroke-width="2" stroke-linecap="round" stroke-linejoin="round" class="lucide lucide-container stroke adaptive" x="48">
        <path d="M22 7.7c0-.6-.4-1.2-.8-1.5l-6.3-3.9a1.72 1.72 0 0 0-1.7 0l-10.3 6c-.5.2-.9.8-.9 1.4v6.6c0 .5.4 1.2.8 1.5l6.3 3.9a1.72 1.72 0 0 0 1.7 0l10.3-6c.5-.3.9-1 .9-1.5Z" />
        <path d="M10 21.9V14L2.1 9.1" />
        <path d="m10 14 11.9-6.9" />
        <path d="M14 19.8v-8.1" />
        <path d="M18 17.5V9.4" />
    </svg>
</svg>